<svg width="100%" height="120" viewBox="0 0 1200 120" xmlns="http://www.w3.org/2000/svg">
  <defs>
    <radialGradient id="petalGrad" cx="30%" cy="30%" r="70%">
      <stop offset="0%" stop-color="#ffd4e5"/>
      <stop offset="100%" stop-color="#ff8fb3"/>
    </radialGradient>
  </defs>

  <g>
    <path d="M0 0 C4 -4 8 -4 12 0 C8 6 4 6 0 0 Z" fill="url(#petalGrad)" opacity="0.9">
      <animateTransform attributeName="transform" type="translate" from="40,-20" to="40,140" dur="6s" repeatCount="indefinite"/>
      <animateTransform attributeName="transform" type="rotate" from="0 40 -20" to="360 40 140" dur="6s" repeatCount="indefinite" additive="sum"/>
    </path>
    <path d="M0 0 C4 -4 8 -4 12 0 C8 6 4 6 0 0 Z" fill="url(#petalGrad)" opacity="0.8">
      <animateTransform attributeName="transform" type="translate" from="180,-30" to="150,150" dur="7.5s" repeatCount="indefinite" begin="0.5s"/>
      <animateTransform attributeName="transform" type="rotate" from="0 180 -30" to="-360 150 150" dur="7.5s" repeatCount="indefinite" begin="0.5s" additive="sum"/>
    </path>
    <path d="M0 0 C4 -4 8 -4 12 0 C8 6 4 6 0 0 Z" fill="url(#petalGrad)" opacity="0.9">
      <animateTransform attributeName="transform" type="translate" from="320,-15" to="290,145" dur="5.5s" repeatCount="indefinite" begin="1.2s"/>
      <animateTransform attributeName="transform" type="rotate" from="0 320 -15" to="360 290 145" dur="5.5s" repeatCount="indefinite" begin="1.2s" additive="sum"/>
    </path>
    <path d="M0 0 C4 -4 8 -4 12 0 C8 6 4 6 0 0 Z" fill="url(#petalGrad)" opacity="0.7">
      <animateTransform attributeName="transform" type="translate" from="470,-25" to="430,135" dur="8s" repeatCount="indefinite" begin="0.2s"/>
      <animateTransform attributeName="transform" type="rotate" from="0 470 -25" to="-360 430 135" dur="8s" repeatCount="indefinite" begin="0.2s" additive="sum"/>
    </path>
    <path d="M0 0 C4 -4 8 -4 12 0 C8 6 4 6 0 0 Z" fill="url(#petalGrad)" opacity="0.85">
      <animateTransform attributeName="transform" type="translate" from="610,-20" to="580,150" dur="6.8s" repeatCount="indefinite" begin="1.8s"/>
      <animateTransform attributeName="transform" type="rotate" from="0 610 -20" to="360 580 150" dur="6.8s" repeatCount="indefinite" begin="1.8s" additive="sum"/>
    </path>
    <path d="M0 0 C4 -4 8 -4 12 0 C8 6 4 6 0 0 Z" fill="url(#petalGrad)" opacity="0.8">
      <animateTransform attributeName="transform" type="translate" from="760,-30" to="720,140" dur="7.2s" repeatCount="indefinite" begin="0.9s"/>
      <animateTransform attributeName="transform" type="rotate" from="0 760 -30" to="-360 720 140" dur="7.2s" repeatCount="indefinite" begin="0.9s" additive="sum"/>
    </path>
    <path d="M0 0 C4 -4 8 -4 12 0 C8 6 4 6 0 0 Z" fill="url(#petalGrad)" opacity="0.9">
      <animateTransform attributeName="transform" type="translate" from="900,-15" to="860,150" dur="6.2s" repeatCount="indefinite" begin="1.5s"/>
      <animateTransform attributeName="transform" type="rotate" from="0 900 -15" to="360 860 150" dur="6.2s" repeatCount="indefinite" begin="1.5s" additive="sum"/>
    </path>
    <path d="M0 0 C4 -4 8 -4 12 0 C8 6 4 6 0 0 Z" fill="url(#petalGrad)" opacity="0.75">
      <animateTransform attributeName="transform" type="translate" from="1040,-25" to="1000,135" dur="7.8s" repeatCount="indefinite" begin="0.4s"/>
      <animateTransform attributeName="transform" type="rotate" from="0 1040 -25" to="-360 1000 135" dur="7.8s" repeatCount="indefinite" begin="0.4s" additive="sum"/>
    </path>
    <path d="M0 0 C4 -4 8 -4 12 0 C8 6 4 6 0 0 Z" fill="url(#petalGrad)" opacity="0.8">
      <animateTransform attributeName="transform" type="translate" from="1150,-20" to="1120,145" dur="6.6s" repeatCount="indefinite" begin="2.1s"/>
      <animateTransform attributeName="transform" type="rotate" from="0 1150 -20" to="360 1120 145" dur="6.6s" repeatCount="indefinite" begin="2.1s" additive="sum"/>
    </path>
  </g>
</svg>
