<svg xmlns="http://www.w3.org/2000/svg" viewBox="0 0 1200 480" width="100%" xmlns:c2pa="http://c2pa.org/manifest"><metadata><c2pa:manifest>AAAWgmp1bWIAAAAeanVtZGMycGEAEQAQgAAAqgA4m3EDYzJwYQAAABZcanVtYgAAAEdqdW1kYzJtYQARABCAAACqADibcQN1cm46YzJwYToxZTc3YWFlZi0wMzRlLTRjYmMtOGE0Zi00ZjExNDA4OGQ1ZDQAAAADl2p1bWIAAAApanVtZGMyYXMAEQAQgAAAqgA4m3EDYzJwYS5hc3NlcnRpb25zAAAAALxqdW1iAAAARGp1bWRjYm9yABEAEIAAAKoAOJtxE2MycGEuaW5ncmVkaWVudC52MwAAAAAYYzJzaO6nHwu3U4cRsoEEZKaC4LgAAABwY2JvcqNpZGM6Zm9ybWF0bWltYWdlL3N2Zyt4bWxqaW5zdGFuY2VJRHgseG1wOmlpZDo0NzMwOGZiMi1lYzkwLTQxNTQtYTY4MC0xYzM1YmVjYjYwNTRscmVsYXRpb25zaGlwaHBhcmVudE9mAAAB4mp1bWIAAABBanVtZGNib3IAEQAQgAAAqgA4m3ETYzJwYS5hY3Rpb25zLnYyAAAAABhjMnNobCpUNiFEQHz/nuMLUqRYiQAAAZljYm9yomdhY3Rpb25zgqJmYWN0aW9ua2MycGEub3BlbmVkanBhcmFtZXRlcnOha2luZ3JlZGllbnRzgaJjdXJseC1zZWxmI2p1bWJmPWMycGEuYXNzZXJ0aW9ucy9jMnBhLmluZ3JlZGllbnQudjNkaGFzaFggCWQGVDf1h6vgYvBhrTsNVMm1pKnzCuP4hVHso60VzEykZmFjdGlvbngdY29tLmFudGhyb3BpYy5jbGF1ZGUucHJvdmlkZWRqcGFyYW1ldGVyc6F4H2NvbS5hbnRocm9waWMub3JpZ2luLWNvbmZpZGVuY2VndW5rbm93bmtkZXNjcmlwdGlvbnhmQ2xhdWRlIHByb3ZpZGVkIHRoaXMgZmlsZSBhdCB0aGUgcmVxdWVzdCBvZiBhIHVzZXIgYW5kIG1heSBoYXZlIGNyZWF0ZWQgb3IgbW9kaWZpZWQgdGhlIGZpbGUgY29udGVudHMubXNvZnR3YXJlQWdlbnShZG5hbWVmQ2xhdWRlcmFsbEFjdGlvbnNJbmNsdWRlZPUAAADIanVtYgAAAEBqdW1kY2JvcgARABCAAACqADibcRNjMnBhLmhhc2guZGF0YQAAAAAYYzJzaEtLD7gwLfmtldleV2gST00AAACAY2JvcqVjYWxnZnNoYTI1NmNwYWRNAAAAAAAAAAAAAAAAAGRoYXNoWCBMXBb9yxz9rPClfBUzDY0moeMT3C/P/OdBhzsu96lHomRuYW1lbmp1bWJmIG1hbmlmZXN0amV4Y2x1c2lvbnOBomVzdGFydBiLZmxlbmd0aBkeBAAAAj5qdW1iAAAAJ2p1bWRjMmNsABEAEIAAAKoAOJtxA2MycGEuY2xhaW0udjIAAAACD2Nib3KlY2FsZ2ZzaGEyNTZpc2lnbmF0dXJleE1zZWxmI2p1bWJmPS9jMnBhL3VybjpjMnBhOjFlNzdhYWVmLTAzNGUtNGNiYy04YTRmLTRmMTE0MDg4ZDVkNC9jMnBhLnNpZ25hdHVyZWppbnN0YW5jZUlEeCx4bXA6aWlkOjE2MDEzMzU3LTNiYmEtNGZhMC1hYzBmLTZiNmViMTUzNmJmN3JjcmVhdGVkX2Fzc2VydGlvbnODomN1cmx4LXNlbGYjanVtYmY9YzJwYS5hc3NlcnRpb25zL2MycGEuaW5ncmVkaWVudC52M2RoYXNoWCAJZAZUN/WHq+Bi8GGtOw1UybWkqfMK4/iFUeyjrRXMTKJjdXJseCpzZWxmI2p1bWJmPWMycGEuYXNzZXJ0aW9ucy9jMnBhLmFjdGlvbnMudjJkaGFzaFggWV5HeDFF74GAQtvtWWoZFSxQPK6YM72S/9j/nlk/4Z2iY3VybHgpc2VsZiNqdW1iZj1jMnBhLmFzc2VydGlvbnMvYzJwYS5oYXNoLmRhdGFkaGFzaFggfd+Bd6MW9g95trLNbqOt/TIhO2ggpV6cxo4JvtGKBS50Y2xhaW1fZ2VuZXJhdG9yX2luZm+jZG5hbWVvQW50aHJvcGljIEZpbGVzZ3ZlcnNpb25lMS4wLjBrc3BlY1ZlcnNpb25lMi40LjAAABA4anVtYgAAAChqdW1kYzJjcwARABCAAACqADibcQNjMnBhLnNpZ25hdHVyZQAAABAIY2JvctKEWQISogEmGCFZAgowggIGMIIBjaADAgECAhRA5aAK7sI50L64g/oGQgU9Z1UTADAKBggqhkjOPQQDAzBJMRcwFQYDVQQKEw5BbnRocm9waWMsIFBCQzEuMCwGA1UEAxMlQW50aHJvcGljIENvbnRlbnQgQ3JlZGVudGlhbHMgUm9vdCBDQTAeFw0yNjA4MDcxODQzNTZaFw0yODA4MDYxOTQzNTZaMEQxFzAVBgNVBAoTDkFudGhyb3BpYywgUEJDMSkwJwYDVQQDEyBBbnRocm9waWMgQ2xhdWRlIENvbnRlbnQgU2lnbmluZzBZMBMGByqGSM49AgEGCCqGSM49AwEHA0IABJh6CmvLUBgFFNU0vUKlOVtE6djd17L5SuwX0LemFisBM3dkd/3cyjxFA3Qo5S46fX0/ihY0VZ7mfb9KF703t5OjWDBWMA4GA1UdDwEB/wQEAwIHgDAVBgNVHSUEDjAMBgorBgEEAYPoXgIBMAwGA1UdEwEB/wQCMAAwHwYDVR0jBBgwFoAUzlHiBIFOZFsj+OPEz5o+nMHXXMIwCgYIKoZIzj0EAwMDZwAwZAIwMXMdFJ4BetLLVY7ORuE9noqbbAZOZn/aArXyTwFAZfKrPzxF2vPoJNf1+UCdg1XGAjBwX1zd9WGqYkqmL5SFqw1QySjr1zJfpJM9+1rdDwSPLMOPOjKuiXjoU/pUUeG9RwmhY3BhZFkNngAAAAAAAAAAAAAAAAAAAAAAAAAAAAAAAAAAAAAAAAAAAAAAAAAAAAAAAAAAAAAAAAAAAAAAAAAAAAAAAAAAAAAAAAAAAAAAAAAAAAAAAAAAAAAAAAAAAAAAAAAAAAAAAAAAAAAAAAAAAAAAAAAAAAAAAAAAAAAAAAAAAAAAAAAAAAAAAAAAAAAAAAAAAAAAAAAAAAAAAAAAAAAAAAAAAAAAAAAAAAAAAAAAAAAAAAAAAAAAAAAAAAAAAAAAAAAAAAAAAAAAAAAAAAAAAAAAAAAAAAAAAAAAAAAAAAAAAAAAAAAAAAAAAAAAAAAAAAAAAAAAAAAAAAAAAAAAAAAAAAAAAAAAAAAAAAAAAAAAAAAAAAAAAAAAAAAAAAAAAAAAAAAAAAAAAAAAAAAAAAAAAAAAAAAAAAAAAAAAAAAAAAAAAAAAAAAAAAAAAAAAAAAAAAAAAAAAAAAAAAAAAAAAAAAAAAAAAAAAAAAAAAAAAAAAAAAAAAAAAAAAAAAAAAAAAAAAAAAAAAAAAAAAAAAAAAAAAAAAAAAAAAAAAAAAAAAAAAAAAAAAAAAAAAAAAAAAAAAAAAAAAAAAAAAAAAAAAAAAAAAAAAAAAAAAAAAAAAAAAAAAAAAAAAAAAAAAAAAAAAAAAAAAAAAAAAAAAAAAAAAAAAAAAAAAAAAAAAAAAAAAAAAAAAAAAAAAAAAAAAAAAAAAAAAAAAAAAAAAAAAAAAAAAAAAAAAAAAAAAAAAAAAAAAAAAAAAAAAAAAAAAAAAAAAAAAAAAAAAAAAAAAAAAAAAAAAAAAAAAAAAAAAAAAAAAAAAAAAAAAAAAAAAAAAAAAAAAAAAAAAAAAAAAAAAAAAAAAAAAAAAAAAAAAAAAAAAAAAAAAAAAAAAAAAAAAAAAAAAAAAAAAAAAAAAAAAAAAAAAAAAAAAAAAAAAAAAAAAAAAAAAAAAAAAAAAAAAAAAAAAAAAAAAAAAAAAAAAAAAAAAAAAAAAAAAAAAAAAAAAAAAAAAAAAAAAAAAAAAAAAAAAAAAAAAAAAAAAAAAAAAAAAAAAAAAAAAAAAAAAAAAAAAAAAAAAAAAAAAAAAAAAAAAAAAAAAAAAAAAAAAAAAAAAAAAAAAAAAAAAAAAAAAAAAAAAAAAAAAAAAAAAAAAAAAAAAAAAAAAAAAAAAAAAAAAAAAAAAAAAAAAAAAAAAAAAAAAAAAAAAAAAAAAAAAAAAAAAAAAAAAAAAAAAAAAAAAAAAAAAAAAAAAAAAAAAAAAAAAAAAAAAAAAAAAAAAAAAAAAAAAAAAAAAAAAAAAAAAAAAAAAAAAAAAAAAAAAAAAAAAAAAAAAAAAAAAAAAAAAAAAAAAAAAAAAAAAAAAAAAAAAAAAAAAAAAAAAAAAAAAAAAAAAAAAAAAAAAAAAAAAAAAAAAAAAAAAAAAAAAAAAAAAAAAAAAAAAAAAAAAAAAAAAAAAAAAAAAAAAAAAAAAAAAAAAAAAAAAAAAAAAAAAAAAAAAAAAAAAAAAAAAAAAAAAAAAAAAAAAAAAAAAAAAAAAAAAAAAAAAAAAAAAAAAAAAAAAAAAAAAAAAAAAAAAAAAAAAAAAAAAAAAAAAAAAAAAAAAAAAAAAAAAAAAAAAAAAAAAAAAAAAAAAAAAAAAAAAAAAAAAAAAAAAAAAAAAAAAAAAAAAAAAAAAAAAAAAAAAAAAAAAAAAAAAAAAAAAAAAAAAAAAAAAAAAAAAAAAAAAAAAAAAAAAAAAAAAAAAAAAAAAAAAAAAAAAAAAAAAAAAAAAAAAAAAAAAAAAAAAAAAAAAAAAAAAAAAAAAAAAAAAAAAAAAAAAAAAAAAAAAAAAAAAAAAAAAAAAAAAAAAAAAAAAAAAAAAAAAAAAAAAAAAAAAAAAAAAAAAAAAAAAAAAAAAAAAAAAAAAAAAAAAAAAAAAAAAAAAAAAAAAAAAAAAAAAAAAAAAAAAAAAAAAAAAAAAAAAAAAAAAAAAAAAAAAAAAAAAAAAAAAAAAAAAAAAAAAAAAAAAAAAAAAAAAAAAAAAAAAAAAAAAAAAAAAAAAAAAAAAAAAAAAAAAAAAAAAAAAAAAAAAAAAAAAAAAAAAAAAAAAAAAAAAAAAAAAAAAAAAAAAAAAAAAAAAAAAAAAAAAAAAAAAAAAAAAAAAAAAAAAAAAAAAAAAAAAAAAAAAAAAAAAAAAAAAAAAAAAAAAAAAAAAAAAAAAAAAAAAAAAAAAAAAAAAAAAAAAAAAAAAAAAAAAAAAAAAAAAAAAAAAAAAAAAAAAAAAAAAAAAAAAAAAAAAAAAAAAAAAAAAAAAAAAAAAAAAAAAAAAAAAAAAAAAAAAAAAAAAAAAAAAAAAAAAAAAAAAAAAAAAAAAAAAAAAAAAAAAAAAAAAAAAAAAAAAAAAAAAAAAAAAAAAAAAAAAAAAAAAAAAAAAAAAAAAAAAAAAAAAAAAAAAAAAAAAAAAAAAAAAAAAAAAAAAAAAAAAAAAAAAAAAAAAAAAAAAAAAAAAAAAAAAAAAAAAAAAAAAAAAAAAAAAAAAAAAAAAAAAAAAAAAAAAAAAAAAAAAAAAAAAAAAAAAAAAAAAAAAAAAAAAAAAAAAAAAAAAAAAAAAAAAAAAAAAAAAAAAAAAAAAAAAAAAAAAAAAAAAAAAAAAAAAAAAAAAAAAAAAAAAAAAAAAAAAAAAAAAAAAAAAAAAAAAAAAAAAAAAAAAAAAAAAAAAAAAAAAAAAAAAAAAAAAAAAAAAAAAAAAAAAAAAAAAAAAAAAAAAAAAAAAAAAAAAAAAAAAAAAAAAAAAAAAAAAAAAAAAAAAAAAAAAAAAAAAAAAAAAAAAAAAAAAAAAAAAAAAAAAAAAAAAAAAAAAAAAAAAAAAAAAAAAAAAAAAAAAAAAAAAAAAAAAAAAAAAAAAAAAAAAAAAAAAAAAAAAAAAAAAAAAAAAAAAAAAAAAAAAAAAAAAAAAAAAAAAAAAAAAAAAAAAAAAAAAAAAAAAAAAAAAAAAAAAAAAAAAAAAAAAAAAAAAAAAAAAAAAAAAAAAAAAAAAAAAAAAAAAAAAAAAAAAAAAAAAAAAAAAAAAAAAAAAAAAAAAAAAAAAAAAAAAAAAAAAAAAAAAAAAAAAAAAAAAAAAAAAAAAAAAAAAAAAAAAAAAAAAAAAAAAAAAAAAAAAAAAAAAAAAAAAAAAAAAAAAAAAAAAAAAAAAAAAAAAAAAAAAAAAAAAAAAAAAAAAAAAAAAAAAAAAAAAAAAAAAAAAAAAAAAAAAAAAAAAAAAAAAAAAAAAAAAAAAAAAAAAAAAAAAAAAAAAAAAAAAAAAAAAAAAAAAAAAAAAAAAAAAAAAAAAAAAAAAAAAAAAAAAAAAAAAAAAAAAAAAAAAAAAAAAAAAAAAAAAAAAAAAAAAAAAAAAAAAAAAAAAAAAAAAAAAAAAAAAAAAAAAAAAAAAAAAAAAAAAAAAAAAAAAAAAAAAAAAAAAAAAAAAAAAAAAAAAAAAAAAAAAAAAAAAAAAAAAAAAAAAAAAAAAAAAAAAAAAAAAAAAAAAAAAAAAAAAAAAAAAAAAAAAAAAAAAAAAAAAAAAAAAAAAAAAAAAAAAAAAAAAAAAAAAAAAAAAAAAAAAAAAAAAAAAAAAAAAAAAAAAAAAAAAAAAAAAAAAAAAAAAAAAAAAAAAAAAAAAAAAAAAAAAAAAAAAAAAAAAAAAAAAAAAAAAAAAAAAAAAAAAAAAAAAAAAAAAAAAAAAAAAAAAAAAAAAAAAAAAAAAAAAAAAAAAAAAAAAAAAAAAAAAAAAAAAAAAAAAAAAAAAAAAAAAAAAAAAAAAAAAAAAAAAAAAAAAAAAAAAAAAAAAAAAAAAAAAAAAAAAAAAAAAAAAAAAAAAAAAAAAAAAAAAAAAAAAAAAAAAAAAAAAAAAAAAAAAAAAAAAAAAAAAAAAAAAAAAAAAAAAAAAAAAAAAAAAAAAAAAAAAAAAAAAAAAAAAAAAAAAAAAAAAAAAAAAAAAAAAAAAAAAAAAAAAAAAAAAAAAAAAAAAAAAAAAAAAAAAAAAAAAAAAAAAAAAAAAAAAAAAAAAAAAAAAAAAAAAAAAAAAAAAAAAAAAAAAAAAAAAAAAAAAAAAAAAAAAAAAAAAAAAAAAAAAAAAAAAAAAAAAAAAAAAAAAAAAAAAAAAAAAAAAAAAAAAAAAAAAAAAAAAAAAAAAAAAAAAAAAAAAAAAAAAAAAAAAAAAAAAAAAAAAAAAAAAAAAAAAAAAAAAAAAAAAAAAAAAAAAAAAAAAAAAAAAAAAAAAAAAAAAAAAAAAAAAAAAAAAAAAAAAAAAAAAAAAAAAAAAAAAAAAAAAAAAAAAAAAAAAAAAAAAAAAAAAAAAAAAAAAAAAAAAAAAAAAAAAAAAAAAAAAAAAAAAAAAAAAAAAAAAAAAAAAAAAAAAAAAAAAAAAAAAAAAAAAAAAAAAAAAAAAAAAAAAAAAAAAAAAAAAAAAAAAAAAAAAAAAAAAAAAAAAAAAAAAAAAAAAAAAAAAAAAAAAAAAAAAAAAAAAAAAAAAAAAAAAAAAAAAAAAAAAAAAAAAAAAAAAAAAAAAAAAAAAAAAAAAAAAAAAAAAAAAAAAAAAAAAAAAAAAAAAAAAAAAAAAAAAAAAAAAAAAAAAAAAAAAAAAAAAAAAAAAAAAAAAAAAAAAAAAAAAAAAAAAAAAAAAAAAAAAAAAAAAAAPZYQKI2CkyWs2bW8YrJt7nzr/x9mRl8RJjsBYZMP/Eqvkua8TQUGQhH8KhGLSIp/DGiP0M0gmozD7amFqU3Tr8UT5c=</c2pa:manifest></metadata><defs><path id="petal" d="M0,0 C6,-9 16,-6 13,4 C10,12 2,11 0,0 Z"/><filter id="paint" x="-8%" y="-8%" width="116%" height="116%"><feTurbulence type="fractalNoise" baseFrequency="0.035" numOctaves="3" seed="4" result="n"/><feDisplacementMap in="SourceGraphic" in2="n" scale="15"/></filter><filter id="paintS" x="-8%" y="-8%" width="116%" height="116%"><feTurbulence type="fractalNoise" baseFrequency="0.06" numOctaves="2" seed="9" result="n"/><feDisplacementMap in="SourceGraphic" in2="n" scale="7"/></filter><filter id="b2" x="-50%" y="-50%" width="200%" height="200%"><feGaussianBlur stdDeviation="2"/></filter><filter id="b6" x="-50%" y="-50%" width="200%" height="200%"><feGaussianBlur stdDeviation="6"/></filter><filter id="ts" x="-20%" y="-30%" width="140%" height="170%"><feDropShadow dx="0" dy="2" stdDeviation="4" flood-color="#0a1a38" flood-opacity="0.5"/></filter><filter id="ps" x="-10%" y="-10%" width="120%" height="125%"><feDropShadow dx="0" dy="6" stdDeviation="9" flood-color="#5a5a9a" flood-opacity="0.2"/></filter><pattern id="tile" width="10" height="7" patternUnits="userSpaceOnUse"><rect width="10" height="7" fill="#586488"/><path d="M0,6.5 H10" stroke="#3f4868" stroke-width="1.4"/><path d="M5,0 V6" stroke="#7683ad" stroke-width="0.8" opacity="0.7"/></pattern><pattern id="chain" width="14" height="14" patternUnits="userSpaceOnUse"><path d="M0,0 L14,14 M14,0 L0,14" stroke="#c4cfe6" stroke-width="1" opacity="0.65"/></pattern><pattern id="stone" width="28" height="14" patternUnits="userSpaceOnUse"><rect width="28" height="14" fill="#4e5478"/><path d="M0,7 L7,0 L14,7 L21,0 L28,7 M0,14 L7,7 L14,14 L21,7 L28,14" stroke="#3a4062" stroke-width="1.6" fill="none"/></pattern><linearGradient id="win" x1="0" y1="0" x2="0" y2="1"><stop offset="0" stop-color="#7fb3ea"/><stop offset="1" stop-color="#cfe0f6"/></linearGradient><linearGradient id="skyd" x1="0" y1="0" x2="0" y2="1"><stop offset="0" stop-color="#3f9be6"/><stop offset="0.55" stop-color="#8cc9f5"/><stop offset="1" stop-color="#dcf0fc"/></linearGradient><linearGradient id="cl" x1="0" y1="0" x2="0" y2="1"><stop offset="0" stop-color="#ffffff"/><stop offset="0.6" stop-color="#f6f0ff"/><stop offset="1" stop-color="#c9c0ec"/></linearGradient><linearGradient id="vb" x1="0" y1="0" x2="1" y2="0"><stop offset="0" stop-color="#e9f0fb"/><stop offset="0.5" stop-color="#ffffff"/><stop offset="1" stop-color="#d7e1f2"/></linearGradient><clipPath id="vc"><rect width="1200" height="480" rx="18"/></clipPath></defs><g clip-path="url(#vc)">
<rect width="1200" height="480" fill="url(#skyd)"/><g opacity="0.9"><animateTransform attributeName="transform" type="translate" values="-420,0;1620,0" dur="320s" begin="-20s" repeatCount="indefinite"/><g transform="translate(260,80) scale(0.8)"><ellipse cx="0" cy="0" rx="150" ry="30" fill="url(#cl)"/><ellipse cx="-90" cy="8" rx="90" ry="24" fill="url(#cl)"/><ellipse cx="80" cy="-14" rx="110" ry="36" fill="url(#cl)"/><ellipse cx="150" cy="10" rx="80" ry="22" fill="url(#cl)"/><ellipse cx="-30" cy="-26" rx="80" ry="30" fill="url(#cl)"/><ellipse cx="30" cy="-34" rx="70" ry="28" fill="url(#cl)"/></g></g><g opacity="0.9"><animateTransform attributeName="transform" type="translate" values="-420,0;1620,0" dur="360s" begin="-150s" repeatCount="indefinite"/><g transform="translate(960,60) scale(0.7)"><ellipse cx="0" cy="0" rx="150" ry="30" fill="url(#cl)"/><ellipse cx="-90" cy="8" rx="90" ry="24" fill="url(#cl)"/><ellipse cx="80" cy="-14" rx="110" ry="36" fill="url(#cl)"/><ellipse cx="150" cy="10" rx="80" ry="22" fill="url(#cl)"/><ellipse cx="-30" cy="-26" rx="80" ry="30" fill="url(#cl)"/><ellipse cx="30" cy="-34" rx="70" ry="28" fill="url(#cl)"/></g></g><g filter="url(#paint)"><ellipse cx="-14" cy="87" rx="26" ry="26" fill="#b89be3"/><ellipse cx="53" cy="58" rx="27" ry="21" fill="#b89be3"/><ellipse cx="117" cy="-43" rx="50" ry="42" fill="#b89be3"/><ellipse cx="16" cy="48" rx="35" ry="25" fill="#a98fdc"/><ellipse cx="-127" cy="-29" rx="34" ry="33" fill="#c6a6ea"/><ellipse cx="265" cy="-13" rx="43" ry="34" fill="#b89be3"/><ellipse cx="168" cy="93" rx="49" ry="39" fill="#a98fdc"/><ellipse cx="177" cy="26" rx="36" ry="26" fill="#b89be3"/><ellipse cx="115" cy="38" rx="38" ry="36" fill="#a98fdc"/><ellipse cx="122" cy="-19" rx="28" ry="23" fill="#b89be3"/><ellipse cx="132" cy="72" rx="40" ry="31" fill="#a98fdc"/><ellipse cx="61" cy="-55" rx="42" ry="38" fill="#b89be3"/><ellipse cx="139" cy="28" rx="38" ry="35" fill="#a98fdc"/><ellipse cx="144" cy="-63" rx="51" ry="40" fill="#b89be3"/><ellipse cx="204" cy="13" rx="38" ry="28" fill="#a98fdc"/><ellipse cx="244" cy="74" rx="37" ry="35" fill="#c6a6ea"/><ellipse cx="132" cy="-17" rx="40" ry="32" fill="#c6a6ea"/><ellipse cx="-136" cy="-9" rx="26" ry="25" fill="#b89be3"/><ellipse cx="-102" cy="42" rx="39" ry="35" fill="#c6a6ea"/><ellipse cx="45" cy="5" rx="37" ry="30" fill="#c6a6ea"/><ellipse cx="-84" cy="-26" rx="50" ry="45" fill="#a98fdc"/><ellipse cx="138" cy="-44" rx="27" ry="22" fill="#a98fdc"/><ellipse cx="-103" cy="4" rx="34" ry="31" fill="#a98fdc"/><ellipse cx="79" cy="-62" rx="43" ry="41" fill="#c6a6ea"/><ellipse cx="-15" cy="91" rx="33" ry="32" fill="#b89be3"/><ellipse cx="-89" cy="-10" rx="28" ry="27" fill="#c6a6ea"/><ellipse cx="157" cy="91" rx="46" ry="41" fill="#c6a6ea"/><ellipse cx="-47" cy="58" rx="39" ry="29" fill="#b89be3"/><ellipse cx="104" cy="28" rx="50" ry="42" fill="#b89be3"/><ellipse cx="15" cy="-8" rx="51" ry="48" fill="#c6a6ea"/><ellipse cx="148" cy="71" rx="44" ry="33" fill="#b89be3"/><ellipse cx="-47" cy="-42" rx="51" ry="43" fill="#b89be3"/><ellipse cx="180" cy="29" rx="36" ry="32" fill="#a98fdc"/><ellipse cx="203" cy="-53" rx="33" ry="32" fill="#b89be3"/><ellipse cx="30" cy="-33" rx="33" ry="32" fill="#a98fdc"/><ellipse cx="81" cy="-71" rx="40" ry="31" fill="#b89be3"/><ellipse cx="157" cy="37" rx="35" ry="32" fill="#ffd0e6"/><ellipse cx="-9" cy="-46" rx="35" ry="25" fill="#f2c8ee"/><ellipse cx="96" cy="-18" rx="24" ry="19" fill="#e9bff0"/><ellipse cx="-20" cy="84" rx="32" ry="25" fill="#e9bff0"/><ellipse cx="-134" cy="7" rx="34" ry="28" fill="#f2c8ee"/><ellipse cx="140" cy="51" rx="28" ry="27" fill="#ffd0e6"/><ellipse cx="-77" cy="-10" rx="25" ry="21" fill="#ffd0e6"/><ellipse cx="233" cy="-8" rx="27" ry="25" fill="#f2c8ee"/><ellipse cx="34" cy="4" rx="24" ry="21" fill="#e9bff0"/><ellipse cx="111" cy="-9" rx="20" ry="15" fill="#ffd0e6"/><ellipse cx="235" cy="71" rx="32" ry="28" fill="#e9bff0"/><ellipse cx="127" cy="87" rx="31" ry="24" fill="#f2c8ee"/><ellipse cx="-51" cy="89" rx="29" ry="25" fill="#f2c8ee"/><ellipse cx="71" cy="2" rx="27" ry="21" fill="#ffd0e6"/><ellipse cx="27" cy="113" rx="28" ry="25" fill="#ffd0e6"/><ellipse cx="34" cy="56" rx="32" ry="25" fill="#e9bff0"/><ellipse cx="62" cy="54" rx="37" ry="35" fill="#f2c8ee"/><ellipse cx="128" cy="83" rx="28" ry="23" fill="#f2c8ee"/><ellipse cx="165" cy="-27" rx="29" ry="28" fill="#e9bff0"/><ellipse cx="110" cy="60" rx="25" ry="20" fill="#ffd0e6"/><ellipse cx="3" cy="104" rx="25" ry="22" fill="#f2c8ee"/><ellipse cx="154" cy="30" rx="24" ry="23" fill="#ffd0e6"/><ellipse cx="184" cy="-1" rx="30" ry="23" fill="#e9bff0"/><ellipse cx="247" cy="-11" rx="18" ry="15" fill="#e9bff0"/><ellipse cx="22" cy="16" rx="31" ry="30" fill="#f2c8ee"/><ellipse cx="56" cy="19" rx="22" ry="21" fill="#ffd0e6"/><ellipse cx="75" cy="81" rx="36" ry="33" fill="#e9bff0"/><ellipse cx="-40" cy="108" rx="20" ry="20" fill="#e9bff0"/><ellipse cx="48" cy="-18" rx="21" ry="20" fill="#fff1fa"/><ellipse cx="168" cy="-4" rx="18" ry="14" fill="#fff1fa"/><ellipse cx="215" cy="-48" rx="13" ry="11" fill="#ffffff"/><ellipse cx="62" cy="103" rx="22" ry="22" fill="#fff1fa"/><ellipse cx="131" cy="-17" rx="23" ry="17" fill="#ffe6f3"/><ellipse cx="-123" cy="6" rx="13" ry="12" fill="#ffffff"/><ellipse cx="54" cy="-50" rx="13" ry="10" fill="#ffe6f3"/><ellipse cx="-76" cy="18" rx="25" ry="20" fill="#ffffff"/><ellipse cx="30" cy="21" rx="11" ry="11" fill="#fff1fa"/><ellipse cx="83" cy="75" rx="20" ry="15" fill="#ffffff"/><ellipse cx="139" cy="29" rx="21" ry="21" fill="#ffffff"/><ellipse cx="139" cy="19" rx="16" ry="15" fill="#ffe6f3"/><ellipse cx="181" cy="86" rx="22" ry="16" fill="#ffe6f3"/><ellipse cx="-104" cy="56" rx="21" ry="17" fill="#ffffff"/><ellipse cx="154" cy="99" rx="15" ry="13" fill="#ffe6f3"/><ellipse cx="5" cy="-37" rx="11" ry="9" fill="#ffe6f3"/><ellipse cx="-60" cy="113" rx="11" ry="38" fill="#ecc4f0"/><ellipse cx="-46" cy="85" rx="7" ry="27" fill="#ecc4f0"/><ellipse cx="206" cy="95" rx="12" ry="69" fill="#f8d9f1"/><ellipse cx="7" cy="118" rx="7" ry="52" fill="#f8d9f1"/><ellipse cx="244" cy="79" rx="9" ry="59" fill="#ecc4f0"/><ellipse cx="-0" cy="109" rx="10" ry="37" fill="#f8d9f1"/><ellipse cx="7" cy="133" rx="8" ry="58" fill="#ecc4f0"/><ellipse cx="119" cy="127" rx="7" ry="65" fill="#ecc4f0"/><ellipse cx="186" cy="90" rx="11" ry="31" fill="#d9b6ee"/><ellipse cx="138" cy="116" rx="9" ry="48" fill="#d9b6ee"/><ellipse cx="21" cy="125" rx="7" ry="32" fill="#d9b6ee"/><ellipse cx="132" cy="132" rx="12" ry="63" fill="#ecc4f0"/></g><g filter="url(#paint)"><ellipse cx="1288" cy="55" rx="52" ry="42" fill="#a98fdc"/><ellipse cx="1075" cy="-8" rx="45" ry="44" fill="#b89be3"/><ellipse cx="1318" cy="12" rx="35" ry="28" fill="#a98fdc"/><ellipse cx="1332" cy="38" rx="38" ry="27" fill="#b89be3"/><ellipse cx="1157" cy="1" rx="34" ry="24" fill="#c6a6ea"/><ellipse cx="1221" cy="-5" rx="36" ry="29" fill="#c6a6ea"/><ellipse cx="1076" cy="-14" rx="39" ry="29" fill="#c6a6ea"/><ellipse cx="1274" cy="-14" rx="30" ry="30" fill="#b89be3"/><ellipse cx="1254" cy="37" rx="28" ry="20" fill="#b89be3"/><ellipse cx="1089" cy="114" rx="39" ry="37" fill="#a98fdc"/><ellipse cx="957" cy="31" rx="50" ry="39" fill="#c6a6ea"/><ellipse cx="992" cy="-4" rx="33" ry="26" fill="#c6a6ea"/><ellipse cx="1247" cy="40" rx="34" ry="28" fill="#b89be3"/><ellipse cx="1178" cy="-38" rx="49" ry="49" fill="#b89be3"/><ellipse cx="1006" cy="60" rx="27" ry="23" fill="#a98fdc"/><ellipse cx="1230" cy="28" rx="48" ry="46" fill="#b89be3"/><ellipse cx="1285" cy="83" rx="32" ry="28" fill="#b89be3"/><ellipse cx="1170" cy="-41" rx="39" ry="29" fill="#b89be3"/><ellipse cx="1001" cy="-22" rx="51" ry="47" fill="#c6a6ea"/><ellipse cx="1297" cy="12" rx="48" ry="34" fill="#a98fdc"/><ellipse cx="954" cy="34" rx="39" ry="32" fill="#a98fdc"/><ellipse cx="1205" cy="-21" rx="28" ry="21" fill="#a98fdc"/><ellipse cx="1032" cy="51" rx="40" ry="31" fill="#c6a6ea"/><ellipse cx="1119" cy="-53" rx="44" ry="40" fill="#b89be3"/><ellipse cx="1174" cy="33" rx="27" ry="24" fill="#a98fdc"/><ellipse cx="981" cy="5" rx="48" ry="44" fill="#a98fdc"/><ellipse cx="1200" cy="-37" rx="31" ry="23" fill="#c6a6ea"/><ellipse cx="1179" cy="9" rx="51" ry="49" fill="#c6a6ea"/><ellipse cx="1156" cy="55" rx="42" ry="31" fill="#a98fdc"/><ellipse cx="1313" cy="30" rx="35" ry="33" fill="#b89be3"/><ellipse cx="1088" cy="15" rx="43" ry="43" fill="#b89be3"/><ellipse cx="1060" cy="-19" rx="37" ry="27" fill="#c6a6ea"/><ellipse cx="1009" cy="-2" rx="40" ry="36" fill="#a98fdc"/><ellipse cx="1049" cy="46" rx="45" ry="44" fill="#b89be3"/><ellipse cx="1103" cy="35" rx="24" ry="20" fill="#e9bff0"/><ellipse cx="1146" cy="-23" rx="30" ry="27" fill="#ffd0e6"/><ellipse cx="1036" cy="-11" rx="35" ry="32" fill="#ffd0e6"/><ellipse cx="1153" cy="22" rx="33" ry="30" fill="#f2c8ee"/><ellipse cx="1070" cy="55" rx="33" ry="28" fill="#ffd0e6"/><ellipse cx="1193" cy="13" rx="25" ry="17" fill="#f2c8ee"/><ellipse cx="1258" cy="18" rx="34" ry="27" fill="#f2c8ee"/><ellipse cx="1069" cy="45" rx="24" ry="22" fill="#e9bff0"/><ellipse cx="974" cy="20" rx="34" ry="29" fill="#ffd0e6"/><ellipse cx="1201" cy="16" rx="40" ry="34" fill="#ffd0e6"/><ellipse cx="1283" cy="-2" rx="29" ry="27" fill="#f2c8ee"/><ellipse cx="964" cy="-7" rx="33" ry="29" fill="#f2c8ee"/><ellipse cx="1031" cy="23" rx="38" ry="33" fill="#ffd0e6"/><ellipse cx="1178" cy="-50" rx="31" ry="23" fill="#f2c8ee"/><ellipse cx="1259" cy="93" rx="39" ry="38" fill="#ffd0e6"/><ellipse cx="1180" cy="-37" rx="35" ry="32" fill="#ffd0e6"/><ellipse cx="1320" cy="11" rx="21" ry="20" fill="#ffd0e6"/><ellipse cx="1156" cy="31" rx="40" ry="32" fill="#ffd0e6"/><ellipse cx="1005" cy="44" rx="27" ry="21" fill="#f2c8ee"/><ellipse cx="1067" cy="-39" rx="21" ry="19" fill="#ffd0e6"/><ellipse cx="1092" cy="31" rx="33" ry="32" fill="#e9bff0"/><ellipse cx="993" cy="74" rx="38" ry="30" fill="#e9bff0"/><ellipse cx="1024" cy="58" rx="38" ry="27" fill="#e9bff0"/><ellipse cx="1182" cy="-9" rx="20" ry="18" fill="#f2c8ee"/><ellipse cx="1306" cy="12" rx="33" ry="28" fill="#f2c8ee"/><ellipse cx="1232" cy="35" rx="29" ry="26" fill="#f2c8ee"/><ellipse cx="1077" cy="-15" rx="14" ry="13" fill="#fff1fa"/><ellipse cx="996" cy="25" rx="25" ry="19" fill="#ffe6f3"/><ellipse cx="1191" cy="-29" rx="20" ry="20" fill="#fff1fa"/><ellipse cx="1174" cy="35" rx="12" ry="11" fill="#ffe6f3"/><ellipse cx="1123" cy="-21" rx="25" ry="24" fill="#ffe6f3"/><ellipse cx="1048" cy="99" rx="12" ry="12" fill="#fff1fa"/><ellipse cx="1022" cy="-42" rx="15" ry="11" fill="#ffe6f3"/><ellipse cx="1332" cy="-9" rx="23" ry="17" fill="#ffe6f3"/><ellipse cx="1075" cy="43" rx="14" ry="13" fill="#ffe6f3"/><ellipse cx="1001" cy="-35" rx="19" ry="16" fill="#fff1fa"/><ellipse cx="1217" cy="-50" rx="15" ry="14" fill="#ffffff"/><ellipse cx="1030" cy="-39" rx="11" ry="11" fill="#ffffff"/><ellipse cx="1216" cy="20" rx="19" ry="15" fill="#ffe6f3"/><ellipse cx="1088" cy="-37" rx="16" ry="12" fill="#ffffff"/><ellipse cx="1027" cy="-48" rx="11" ry="9" fill="#fff1fa"/><ellipse cx="972" cy="83" rx="8" ry="56" fill="#d9b6ee"/><ellipse cx="974" cy="74" rx="11" ry="70" fill="#f8d9f1"/><ellipse cx="1124" cy="127" rx="7" ry="53" fill="#d9b6ee"/><ellipse cx="1035" cy="87" rx="9" ry="58" fill="#f8d9f1"/><ellipse cx="1094" cy="136" rx="7" ry="59" fill="#d9b6ee"/><ellipse cx="1073" cy="131" rx="8" ry="45" fill="#f8d9f1"/><ellipse cx="1264" cy="99" rx="7" ry="29" fill="#d9b6ee"/><ellipse cx="1256" cy="62" rx="7" ry="39" fill="#d9b6ee"/><ellipse cx="1286" cy="111" rx="8" ry="66" fill="#d9b6ee"/><ellipse cx="1270" cy="85" rx="10" ry="64" fill="#ecc4f0"/><ellipse cx="1147" cy="124" rx="10" ry="32" fill="#d9b6ee"/><ellipse cx="1092" cy="124" rx="9" ry="48" fill="#f8d9f1"/></g>
<rect x="0" y="430" width="1200" height="50" fill="#c9b0d8"/>
<rect x="150" y="26" width="900" height="424" rx="16" fill="url(#vb)" filter="url(#ps)"/><rect x="150.5" y="26.5" width="899" height="423" rx="16" fill="none" stroke="#b9c8e4"/>
<rect x="150" y="26" width="900" height="62" rx="16" fill="#e2607d"/><rect x="150" y="60" width="900" height="28" fill="#e2607d"/>
<text x="190" y="66" font-size="24" font-weight="700" fill="#fff" font-family="'Hiragino Sans','Hiragino Kaku Gothic ProN','Yu Gothic','Noto Sans JP','Noto Sans CJK JP','Segoe UI',Arial,sans-serif" letter-spacing="8">募集中  ·  OPEN TO ROLES</text><text x="1014" y="64" text-anchor="end" font-size="13" font-weight="700" fill="#ffe3ea" font-family="'SF Mono','Fira Code',Menlo,Consolas,monospace" letter-spacing="3">5 / 5 IN STOCK</text>
<rect x="190" y="104" width="620" height="252" rx="8" fill="#16213f"/><rect x="196" y="110" width="608" height="240" rx="6" fill="#26355e" opacity="0.55"/><g transform="translate(212,0)"><rect x="8" y="132" width="98" height="104" rx="4" fill="#0e1830" opacity="0.5"/>
<g transform="translate(57,160)"><rect x="-17" y="-14" width="34" height="80" rx="10" fill="#e2607d"/><rect x="-7" y="-26" width="14" height="14" rx="3" fill="#dfe6f5"/><rect x="-17" y="14" width="34" height="26" fill="#fff" opacity="0.88"/><rect x="-13" y="-4" width="5" height="52" rx="2" fill="#fff" opacity="0.35"/></g>
<rect x="2" y="244" width="110" height="52" rx="4" fill="#fff"/><rect x="2" y="244" width="110" height="4" rx="2" fill="#e2607d"/><text x="57" y="269" text-anchor="middle" font-size="13" font-weight="700" fill="#14233f" font-family="'Hiragino Sans','Hiragino Kaku Gothic ProN','Yu Gothic','Noto Sans JP','Noto Sans CJK JP','Segoe UI',Arial,sans-serif">Bridge</text><text x="57" y="286" text-anchor="middle" font-size="12" font-weight="600" fill="#4b5d7a" font-family="'Hiragino Sans','Hiragino Kaku Gothic ProN','Yu Gothic','Noto Sans JP','Noto Sans CJK JP','Segoe UI',Arial,sans-serif">Engineer</text>
<rect x="30" y="304" width="54" height="18" rx="9" fill="#2a86d0"/><text x="57" y="317" text-anchor="middle" font-size="10" font-weight="700" fill="#fff" font-family="'Hiragino Sans','Hiragino Kaku Gothic ProN','Yu Gothic','Noto Sans JP','Noto Sans CJK JP','Segoe UI',Arial,sans-serif">募集中</text><text x="57" y="340" text-anchor="middle" font-size="10" fill="#4b5d7a" font-family="'SF Mono','Fira Code',Menlo,Consolas,monospace">ROLE 01</text></g><g transform="translate(330,0)"><rect x="8" y="132" width="98" height="104" rx="4" fill="#0e1830" opacity="0.5"/>
<g transform="translate(57,160)"><rect x="-17" y="-14" width="34" height="80" rx="10" fill="#f0a050"/><rect x="-7" y="-26" width="14" height="14" rx="3" fill="#dfe6f5"/><rect x="-17" y="14" width="34" height="26" fill="#fff" opacity="0.88"/><rect x="-13" y="-4" width="5" height="52" rx="2" fill="#fff" opacity="0.35"/></g>
<rect x="2" y="244" width="110" height="52" rx="4" fill="#fff"/><rect x="2" y="244" width="110" height="4" rx="2" fill="#f0a050"/><text x="57" y="269" text-anchor="middle" font-size="13" font-weight="700" fill="#14233f" font-family="'Hiragino Sans','Hiragino Kaku Gothic ProN','Yu Gothic','Noto Sans JP','Noto Sans CJK JP','Segoe UI',Arial,sans-serif">Full Stack</text><text x="57" y="286" text-anchor="middle" font-size="12" font-weight="600" fill="#4b5d7a" font-family="'Hiragino Sans','Hiragino Kaku Gothic ProN','Yu Gothic','Noto Sans JP','Noto Sans CJK JP','Segoe UI',Arial,sans-serif">Engineer</text>
<rect x="30" y="304" width="54" height="18" rx="9" fill="#2a86d0"/><text x="57" y="317" text-anchor="middle" font-size="10" font-weight="700" fill="#fff" font-family="'Hiragino Sans','Hiragino Kaku Gothic ProN','Yu Gothic','Noto Sans JP','Noto Sans CJK JP','Segoe UI',Arial,sans-serif">募集中</text><text x="57" y="340" text-anchor="middle" font-size="10" fill="#4b5d7a" font-family="'SF Mono','Fira Code',Menlo,Consolas,monospace">ROLE 02</text></g><g transform="translate(448,0)"><rect x="8" y="132" width="98" height="104" rx="4" fill="#0e1830" opacity="0.5"/>
<g transform="translate(57,160)"><rect x="-17" y="-14" width="34" height="80" rx="10" fill="#3a9ad9"/><rect x="-7" y="-26" width="14" height="14" rx="3" fill="#dfe6f5"/><rect x="-17" y="14" width="34" height="26" fill="#fff" opacity="0.88"/><rect x="-13" y="-4" width="5" height="52" rx="2" fill="#fff" opacity="0.35"/></g>
<rect x="2" y="244" width="110" height="52" rx="4" fill="#fff"/><rect x="2" y="244" width="110" height="4" rx="2" fill="#3a9ad9"/><text x="57" y="269" text-anchor="middle" font-size="13" font-weight="700" fill="#14233f" font-family="'Hiragino Sans','Hiragino Kaku Gothic ProN','Yu Gothic','Noto Sans JP','Noto Sans CJK JP','Segoe UI',Arial,sans-serif">Web</text><text x="57" y="286" text-anchor="middle" font-size="12" font-weight="600" fill="#4b5d7a" font-family="'Hiragino Sans','Hiragino Kaku Gothic ProN','Yu Gothic','Noto Sans JP','Noto Sans CJK JP','Segoe UI',Arial,sans-serif">Developer</text>
<rect x="30" y="304" width="54" height="18" rx="9" fill="#2a86d0"/><text x="57" y="317" text-anchor="middle" font-size="10" font-weight="700" fill="#fff" font-family="'Hiragino Sans','Hiragino Kaku Gothic ProN','Yu Gothic','Noto Sans JP','Noto Sans CJK JP','Segoe UI',Arial,sans-serif">募集中</text><text x="57" y="340" text-anchor="middle" font-size="10" fill="#4b5d7a" font-family="'SF Mono','Fira Code',Menlo,Consolas,monospace">ROLE 03</text></g><g transform="translate(566,0)"><rect x="8" y="132" width="98" height="104" rx="4" fill="#0e1830" opacity="0.5"/>
<g transform="translate(57,160)"><rect x="-17" y="-14" width="34" height="80" rx="10" fill="#7a63d8"/><rect x="-7" y="-26" width="14" height="14" rx="3" fill="#dfe6f5"/><rect x="-17" y="14" width="34" height="26" fill="#fff" opacity="0.88"/><rect x="-13" y="-4" width="5" height="52" rx="2" fill="#fff" opacity="0.35"/></g>
<rect x="2" y="244" width="110" height="52" rx="4" fill="#fff"/><rect x="2" y="244" width="110" height="4" rx="2" fill="#7a63d8"/><text x="57" y="269" text-anchor="middle" font-size="13" font-weight="700" fill="#14233f" font-family="'Hiragino Sans','Hiragino Kaku Gothic ProN','Yu Gothic','Noto Sans JP','Noto Sans CJK JP','Segoe UI',Arial,sans-serif">Software</text><text x="57" y="286" text-anchor="middle" font-size="12" font-weight="600" fill="#4b5d7a" font-family="'Hiragino Sans','Hiragino Kaku Gothic ProN','Yu Gothic','Noto Sans JP','Noto Sans CJK JP','Segoe UI',Arial,sans-serif">Engineer</text>
<rect x="30" y="304" width="54" height="18" rx="9" fill="#2a86d0"/><text x="57" y="317" text-anchor="middle" font-size="10" font-weight="700" fill="#fff" font-family="'Hiragino Sans','Hiragino Kaku Gothic ProN','Yu Gothic','Noto Sans JP','Noto Sans CJK JP','Segoe UI',Arial,sans-serif">募集中</text><text x="57" y="340" text-anchor="middle" font-size="10" fill="#4b5d7a" font-family="'SF Mono','Fira Code',Menlo,Consolas,monospace">ROLE 04</text></g><g transform="translate(684,0)"><rect x="8" y="132" width="98" height="104" rx="4" fill="#0e1830" opacity="0.5"/>
<g transform="translate(57,160)"><rect x="-17" y="-14" width="34" height="80" rx="10" fill="#1aa6a0"/><rect x="-7" y="-26" width="14" height="14" rx="3" fill="#dfe6f5"/><rect x="-17" y="14" width="34" height="26" fill="#fff" opacity="0.88"/><rect x="-13" y="-4" width="5" height="52" rx="2" fill="#fff" opacity="0.35"/></g>
<rect x="2" y="244" width="110" height="52" rx="4" fill="#fff"/><rect x="2" y="244" width="110" height="4" rx="2" fill="#1aa6a0"/><text x="57" y="269" text-anchor="middle" font-size="13" font-weight="700" fill="#14233f" font-family="'Hiragino Sans','Hiragino Kaku Gothic ProN','Yu Gothic','Noto Sans JP','Noto Sans CJK JP','Segoe UI',Arial,sans-serif">Back End</text><text x="57" y="286" text-anchor="middle" font-size="12" font-weight="600" fill="#4b5d7a" font-family="'Hiragino Sans','Hiragino Kaku Gothic ProN','Yu Gothic','Noto Sans JP','Noto Sans CJK JP','Segoe UI',Arial,sans-serif">Developer</text>
<rect x="30" y="304" width="54" height="18" rx="9" fill="#2a86d0"/><text x="57" y="317" text-anchor="middle" font-size="10" font-weight="700" fill="#fff" font-family="'Hiragino Sans','Hiragino Kaku Gothic ProN','Yu Gothic','Noto Sans JP','Noto Sans CJK JP','Segoe UI',Arial,sans-serif">募集中</text><text x="57" y="340" text-anchor="middle" font-size="10" fill="#4b5d7a" font-family="'SF Mono','Fira Code',Menlo,Consolas,monospace">ROLE 05</text></g>
<rect x="838" y="104" width="180" height="252" rx="8" fill="#dfe8f6"/>
<rect x="854" y="120" width="148" height="40" rx="6" fill="#0a1226"/><text x="928" y="148" text-anchor="middle" font-size="19" font-weight="700" fill="#FFB84A" font-family="'SF Mono','Fira Code',Menlo,Consolas,monospace" letter-spacing="3">SHINSOTSU</text>
<text x="928" y="184" text-anchor="middle" font-size="11" font-weight="700" fill="#4b5d7a" font-family="'SF Mono','Fira Code',Menlo,Consolas,monospace" letter-spacing="3">2029  ·  JAPAN</text>
<g><rect x="860" y="204" width="136" height="54" rx="27" fill="#e2607d"><animate attributeName="opacity" values="1;0.8;1" dur="1.8s" repeatCount="indefinite"/></rect><rect x="860" y="204" width="136" height="54" rx="27" fill="none" stroke="#e2607d" stroke-width="2"><animate attributeName="width" values="136;156;136" dur="1.8s" repeatCount="indefinite"/><animate attributeName="x" values="860;850;860" dur="1.8s" repeatCount="indefinite"/><animate attributeName="opacity" values="0.8;0;0.8" dur="1.8s" repeatCount="indefinite"/></rect><text x="928" y="238" text-anchor="middle" font-size="19" font-weight="700" fill="#fff" font-family="'Hiragino Sans','Hiragino Kaku Gothic ProN','Yu Gothic','Noto Sans JP','Noto Sans CJK JP','Segoe UI',Arial,sans-serif" letter-spacing="4">HIRE ME</text></g>
<text x="928" y="290" text-anchor="middle" font-size="11" font-weight="700" fill="#4b5d7a" font-family="'Hiragino Sans','Hiragino Kaku Gothic ProN','Yu Gothic','Noto Sans JP','Noto Sans CJK JP','Segoe UI',Arial,sans-serif" letter-spacing="2">押すとメールが開きます</text><text x="928" y="330" text-anchor="middle" font-size="10" fill="#4b5d7a" font-family="'SF Mono','Fira Code',Menlo,Consolas,monospace">PRESS → EMAIL</text>
<rect x="190" y="374" width="620" height="58" rx="8" fill="#16213f"/><rect x="200" y="384" width="600" height="38" rx="6" fill="#0a1226"/><text x="500" y="408" text-anchor="middle" font-size="12" font-weight="700" fill="#4d6199" font-family="'Hiragino Sans','Hiragino Kaku Gothic ProN','Yu Gothic','Noto Sans JP','Noto Sans CJK JP','Segoe UI',Arial,sans-serif" letter-spacing="6">取り出し口  ·  PUSH</text>
<g><animateTransform attributeName="transform" type="translate" values="0,0;0,0;0,66;0,66" keyTimes="0;0.15;0.3;1" dur="6s" repeatCount="indefinite"/><rect x="480" y="304" width="34" height="46" rx="10" fill="#e2607d" opacity="0"><animate attributeName="opacity" values="0;0;1;1;0" keyTimes="0;0.14;0.16;0.32;0.4" dur="6s" repeatCount="indefinite"/></rect></g>
<g opacity="0.67"><animateTransform attributeName="transform" type="translate" values="523,-30;739,510" dur="12.1s" begin="-5.8s" repeatCount="indefinite"/><g><animateTransform attributeName="transform" type="rotate" values="0 0 0;540 0 0" dur="7.0s" repeatCount="indefinite"/><use href="#petal" fill="#f3c4ef" transform="scale(0.47)"/></g></g><g opacity="0.76"><animateTransform attributeName="transform" type="translate" values="364,-30;510,510" dur="15.1s" begin="-0.3s" repeatCount="indefinite"/><g><animateTransform attributeName="transform" type="rotate" values="0 0 0;-360 0 0" dur="7.1s" repeatCount="indefinite"/><use href="#petal" fill="#f3c4ef" transform="scale(0.56)"/></g></g><g opacity="0.89"><animateTransform attributeName="transform" type="translate" values="837,-30;1129,510" dur="12.6s" begin="-0.7s" repeatCount="indefinite"/><g><animateTransform attributeName="transform" type="rotate" values="0 0 0;360 0 0" dur="8.6s" repeatCount="indefinite"/><use href="#petal" fill="#ffc9dc" transform="scale(0.51)"/></g></g><g opacity="0.66"><animateTransform attributeName="transform" type="translate" values="900,-30;1073,510" dur="17.5s" begin="-6.1s" repeatCount="indefinite"/><g><animateTransform attributeName="transform" type="rotate" values="0 0 0;360 0 0" dur="9.3s" repeatCount="indefinite"/><use href="#petal" fill="#fff0f6" transform="scale(0.52)"/></g></g><g opacity="0.92"><animateTransform attributeName="transform" type="translate" values="511,-30;780,510" dur="17.4s" begin="-16.1s" repeatCount="indefinite"/><g><animateTransform attributeName="transform" type="rotate" values="0 0 0;360 0 0" dur="7.1s" repeatCount="indefinite"/><use href="#petal" fill="#ffc9dc" transform="scale(0.74)"/></g></g></g></svg>
